<?xml version="1.0" standalone="no"?>
<!DOCTYPE svg PUBLIC "-//W3C//DTD SVG 20010904//EN"
 "http://www.w3.org/TR/2001/REC-SVG-20010904/DTD/svg10.dtd">
<svg version="1.0" xmlns="http://www.w3.org/2000/svg"
 width="656.000000pt" height="656.000000pt" viewBox="0 0 656.000000 656.000000"
 preserveAspectRatio="xMidYMid meet">
<metadata>
Created by potrace 1.11, written by Peter Selinger 2001-2013
</metadata>
<g transform="translate(0.000000,656.000000) scale(0.100000,-0.100000)"
fill="#000000" stroke="none">
<path d="M1225 5529 c-280 -170 -516 -313 -524 -318 -11 -7 39 -105 227 -447
132 -241 240 -440 238 -441 -1 -1 -72 16 -158 38 l-157 41 -425 -394 c-322
-297 -424 -398 -422 -413 2 -11 130 -300 285 -641 l282 -622 87 -5 c48 -4 347
-14 665 -24 317 -9 582 -20 588 -24 7 -4 -26 -132 -97 -380 l-107 -374 130
-400 c108 -331 134 -401 150 -403 10 -2 302 60 648 136 l630 140 490 346 c270
191 497 355 507 364 15 16 12 29 -48 197 -35 99 -64 186 -64 192 0 7 14 19 30
28 29 15 31 15 39 -7 55 -144 52 -141 193 -154 70 -6 77 -5 118 21 48 30 49
30 85 -29 8 -12 38 -18 125 -26 193 -17 179 -20 334 71 76 44 143 82 150 85 9
3 21 -31 41 -110 33 -131 27 -126 149 -126 l79 0 533 303 c422 239 533 306
533 322 1 11 -19 67 -42 125 -47 114 -51 117 -134 119 -24 1 -43 5 -43 9 0 4
20 18 45 30 25 12 48 28 51 35 2 7 -53 138 -123 291 l-128 277 -98 52 c-70 37
-101 49 -111 42 -7 -6 -32 -25 -56 -42 -23 -18 -46 -31 -50 -28 -4 2 -20 39
-36 81 -34 91 -7 71 -366 268 -251 137 -298 159 -298 137 0 -5 -26 -32 -58
-60 l-59 -50 -58 134 -57 135 -280 160 c-154 88 -286 160 -294 160 -7 0 -17
-6 -21 -13 -4 -8 -48 -49 -98 -92 -49 -44 -123 -108 -162 -143 l-73 -64 85
207 c47 115 85 216 85 225 0 12 -342 209 -1202 691 -661 371 -1211 675 -1223
676 -11 1 -249 -138 -530 -308z m1751 -415 c635 -356 1154 -652 1154 -658 0
-7 -65 -172 -145 -368 -80 -196 -145 -363 -145 -371 0 -10 36 -28 108 -53 59
-21 178 -64 266 -95 87 -31 162 -62 166 -70 17 -31 262 -740 258 -745 -5 -4
-1019 93 -1024 99 -1 1 -85 226 -188 499 l-186 498 66 146 c54 121 63 149 52
160 -7 7 -197 85 -422 173 -224 89 -416 166 -426 171 -10 5 -158 267 -330 582
-172 315 -326 597 -343 626 -16 28 -26 52 -22 52 4 0 527 -291 1161 -646z
m-1491 -919 c604 -155 1283 -333 1476 -385 l116 -32 184 -501 c101 -275 183
-508 181 -516 -2 -9 -17 -73 -34 -144 -16 -70 -28 -134 -25 -141 4 -10 69 -15
299 -21 161 -4 295 -11 298 -15 13 -20 243 -691 239 -695 -4 -4 -1160 -129
-1267 -137 l-34 -3 -134 357 -134 358 125 342 c108 295 135 378 123 378 -2 0
-331 9 -732 20 -401 11 -730 21 -732 23 -4 4 -544 1256 -544 1262 0 2 6 2 13
0 6 -2 269 -70 582 -150z m3712 -877 c160 -376 290 -684 289 -685 -1 -1 -35 3
-77 9 l-75 10 -64 160 c-45 111 -71 163 -85 169 -41 17 -228 40 -235 29 -4 -6
11 -75 32 -152 22 -77 38 -141 36 -143 -3 -3 -201 25 -206 30 -2 2 -412 1533
-412 1540 0 2 114 -61 253 -141 l252 -144 292 -682z m313 344 l255 -140 139
-356 c77 -196 137 -358 134 -361 -2 -3 -42 2 -88 10 -53 9 -88 11 -94 5 -5 -5
7 -53 33 -126 23 -64 39 -119 37 -121 -2 -3 -57 3 -121 13 -82 12 -119 22
-124 33 -5 9 -103 268 -219 576 -116 308 -215 573 -221 589 -9 22 -9 27 1 23
7 -2 128 -68 268 -145z m589 -302 l56 -30 112 -247 c62 -136 111 -248 109
-251 -2 -2 -35 2 -73 10 l-68 13 -102 265 c-57 145 -103 266 -103 267 0 7 16
1 69 -27z m323 -689 c16 -6 33 -31 56 -86 17 -43 30 -80 28 -82 -2 -2 -27 -1
-56 3 l-52 7 -28 61 c-47 105 -47 106 -6 106 19 0 45 -4 58 -9z"/>
<path d="M4720 3808 c1 -27 105 -447 114 -455 8 -9 166 -42 199 -43 18 0 27 5
27 16 0 14 -151 369 -185 434 -10 19 -32 33 -73 48 -74 27 -82 27 -82 0z"/>
<path d="M5516 3471 c-4 -5 22 -92 57 -193 l64 -183 87 -14 c57 -9 91 -10 97
-4 10 10 -103 317 -125 339 -12 12 -144 64 -163 64 -7 0 -14 -4 -17 -9z"/>
</g>
</svg>
